<?xml version="1.0" encoding="UTF-8" standalone="no"?><svg xmlns="http://www.w3.org/2000/svg" xmlns:xlink="http://www.w3.org/1999/xlink" contentScriptType="text/ecmascript" fill="#000000" width="1925.2" zoomAndPan="magnify" contentStyleType="text/css" viewBox="-2.5 -0.6 1925.2 1080.6" height="1080.6" preserveAspectRatio="xMidYMid meet" version="1"><g id="change1_1"><path fill="#ffffff" d="M971.2809,0.201c134.9118-0.7634,267.352,13.2321,408.5651,23.432 c50.5166,3.6488,101.4774,2.1287,152.1732,0.4861c90.8048-2.9422,197.6722,0.444,268.2677,70.2076 c76.8633,75.9584,75.7554,183.5719,74.8052,287.0209c-0.3135,34.1302-1.1832,68.2544-1.5533,102.3844 c-0.4154,38.3079-1.2018,76.6049,6.259,114.493c5.4709,27.7822,10.1492,55.7564,14.6284,83.747 c2.5432,15.8922,2.6882,32.3166,6.1356,47.936c13.0979,59.3427,22.1545,118.798,15.6224,180.2176 c-4.5199,42.4985-21.8315,75.4878-55.5853,98.4927c-23.5955,16.0817-48.713,26.0372-77.1304,22.4261 c-35.913-4.5635-71.7466-9.8563-107.6738-14.277c-43.3591-5.3353-86.9183-6.5792-129.9585,1.7131 c-32.9374,6.3458-65.4242,15.5187-97.9634,24.083c-59.8595,15.755-120.3555,26.269-182.1178,26.9902 c-26.446,0.3087-52.9036-0.0912-79.3411,0.54c-33.9794,0.8115-67.9583,3.6932-101.912,3.2803 c-78.4113-0.9536-156.8024-3.6646-235.2108-5.0884c-86.9202-1.5786-173.8554-3.7112-260.7745-3.2931 c-53.1249,0.2556-106.2295,4.906-159.347,7.494c-41.9509,2.0438-83.9081,3.9336-125.8611,5.9271 c-33.8318,1.6077-67.4888,0.4484-100.7775-6.9851c-56.7922-12.6818-104.3496-44.2288-147.8905-83.7744 c-26.2665-23.8561-38.8914-55.4439-39.6143-91.5403c-0.4712-23.5269,2.8231-47.1829,5.0093-70.7192 c3.4905-37.5777,9.3674-75.0246,10.7295-112.6729c1.562-43.1736-0.5878-86.5091-1.3715-129.7691 c-0.2216-12.2333-0.6336-24.5429-2.1093-36.656c-6.611-54.266-13.2164-108.5402-20.6412-162.6822 c-6.4666-47.1553-9.1255-93.9445-2.21-141.5668c9.4224-64.8847,36.7309-119.4684,78.5342-165.8823 c22.9549-25.4866,50.8364-43.823,84.5114-48.7008c26.3927-3.8229,52.9347-1.9631,79.1725,1.7681 c76.7231,10.9105,153.7741,15.2184,231.0662,13.3136c47.3102-1.1659,94.663-3.2124,141.8334-7.1282 c36.7083-3.0472,73.305-8.6531,109.6905-14.9274C812.2801,6.1664,892.2051,0.6485,971.2809,0.201z"/></g></svg>