<?xml version="1.0" encoding="UTF-8" standalone="no"?><svg xmlns="http://www.w3.org/2000/svg" xmlns:xlink="http://www.w3.org/1999/xlink" contentScriptType="text/ecmascript" fill="#000000" width="501" zoomAndPan="magnify" contentStyleType="text/css" viewBox="0.8 -11.8 501.0 286.9" height="286.9" preserveAspectRatio="xMidYMid meet" version="1"><g id="change1_1"><path fill="#fecfa7" d="M429.6693,123.2754c-18.5321-44.1463-47.4732-79.7082-90.8001-101.0228 c-69.243-34.064-135.4066-26.5878-197.0666,19.3892c-19.2055,14.3205-34.3668,32.5711-46.675,53.1788 c-7.3329,12.278-13.4724,25.0525-17.7561,38.7026c9.912-0.435,19.5029,0.8699,28.5267,5.2521 c0.0022-0.0001,0.0022-0.0001,0.0022-0.0001c8.2956,5.5364,16.1266,11.4928,20.0942,21.1629 c0.2703,0.6584,1.4667,1.2631,2.2735,1.3215c4.2028,0.3033,8.4189,0.4214,12.6311,0.6052c0.4384-1.2395,0.4384-1.2395,0,0 c12.49,2.0697,24.2657,6.0253,34.8227,13.1928c0.6216-0.8773,1.2842-1.7288,1.859-2.636 c8.938-14.108,20.4189-25.846,34.9416-33.9627c20.2261-11.3041,41.8454-13.5948,64.169-6.8871 c27.074,8.1352,47.6929,23.4783,56.7919,51.4655c4.8351-1.455,9.6703-2.9099,14.5051-4.3648 c1.4756-0.2631,2.9506-0.5262,4.425-0.7888c3.0885,0.2426,6.1826,0.4245,9.2615,0.7504c2.1058,0.2227,3.4857-0.0946,4.3707-2.4546 c1.4635-3.9035,3.4357-7.6168,5.1933-11.4101c5.0683-7.3513,11.0781-13.6911,19.4866-17.2051 c4.0775-1.7039,8.3365-2.9739,12.5127-4.4405c7.3438-1.1966,14.6101-0.5659,21.6418,1.6157 c4.7882,1.4855,9.351,3.6959,14.0144,5.5821C435.8497,141.2932,433.3476,132.0378,429.6693,123.2754z"/></g><g id="change2_1"><path fill="#fed7fe" d="M105.8981,138.7753c-9.0237-4.3821-18.6147-5.6871-28.5267-5.2521 c4.2836-13.6501,10.4231-26.4247,17.7561-38.7025c12.3082-20.6077,27.4694-38.8583,46.6749-53.1789 c61.6603-45.977,127.8239-53.4532,197.0666-19.3892c43.3269,21.3147,72.2683,56.8766,90.8003,101.0228 c3.6783,8.7624,6.1805,18.0179,9.225,27.0461c-4.6635-1.8862-9.2263-4.0965-14.0144-5.5821 c-7.0318-2.1817-14.298-2.8123-21.6419-1.6157c-8.4289-18.1853-18.8929-35.1111-32.471-49.8825 c-10.1268-11.0169-20.3419-22.112-33.0949-30.2466c-21.6171-13.7888-44.7494-23.6482-70.6342-25.9171 c-17.0281-1.4925-34.039-1.5301-50.6651,2.836c-7.0544,1.8526-13.8169,4.9745-20.5253,7.9415 c-7.9265,3.5057-15.9844,6.9109-23.3965,11.3429c-17.8054,10.6466-31.71,25.6667-43.5419,42.3904 C120.5057,113.466,113.5178,126.3439,105.8981,138.7753z"/></g><g id="change3_1"><path fill="#d0ebc8" d="M371.2388,164.7692c-1.7577,3.7933-3.7298,7.5065-5.1933,11.4101c-0.885,2.3601-2.2649,2.6773-4.3707,2.4546 c-3.0789-0.3259-6.173-0.5077-9.2615-0.7504c-1.4743,0.2626-2.9494,0.5257-4.425,0.7888 c-4.8348,1.4548-9.6701,2.9098-14.5051,4.3648c-9.099-27.9871-29.7179-43.3302-56.7919-51.4655 c-22.3236-6.7077-43.9429-4.4169-64.169,6.8871c-14.5226,8.1167-26.0036,19.8548-34.9416,33.9627 c-0.5748,0.9072-1.2374,1.7587-1.859,2.636c-10.557-7.1675-22.3327-11.1231-34.8227-13.1928 c0.4384-1.2395,0.7457-2.5459,1.3335-3.7107c7.3842-14.6343,18.6625-26.3473,29.7352-38.0248 c7.4109-7.8155,15.956-14.7694,24.8032-20.9521c8.647-6.0427,17.8394-11.9356,27.6597-15.523 c14.189-5.1832,29.2999-6.3202,44.5196-4.4846c16.7433,2.0193,31.9138,8.1893,46.2408,16.7303 c9.117,5.435,16.1434,13.3295,23.9195,20.3746C353.9959,129.7606,363.0485,146.9416,371.2388,164.7692z"/></g><g id="change4_1"><path fill="#f4fcfe" d="M438.5421,148.8057c5.2626,3.665,9.772,8.2465,14.7777,12.5409c0.9048,0.7763,2.6278,0.8735,3.9604,0.8354 c10.879-0.3116,20.8374,2.041,29.3819,9.2472c14.8703,12.5414,15.1919,30.623,0.4995,43.4004 c-1.9531,1.6985-2.2341,2.9968-1.4908,5.4032c5.3623,17.3596-7.2782,35.0783-24.6884,34.681 c-2.3799-0.0543-4.8555-0.4703-7.086-1.2748c-2.4162-0.8715-3.8423-0.2566-5.6814,1.4014 c-17.0821,15.4012-36.516,20.0939-58.4198,12.0575c-4.882-1.7912-9.2975-4.7092-13.07-8.2682 c-3.2441-3.0605-5.4775-7.7919-10.3448-8.1957c-11.8592-0.9839-23.525-2.7475-34.2171-8.5846 c-16.5377-9.0283-25.5341-33.3416-11.5083-50.7405c9.523-11.813,26.445-16.2371,41.0198-14.695 c2.1056,0.2228,3.4857-0.0945,4.3706-2.4546c1.4636-3.9035,3.4356-7.6167,5.1934-11.4102 c7.8841-11.4357,19.5898-19.4993,33.5074-21.5728C416.076,139.4885,429.093,142.2251,438.5421,148.8057z M140.8982,159.8437 c-4.2115-0.1826-8.4276-0.3008-12.6303-0.6042c-0.807-0.0582-2.0034-0.663-2.2735-1.3214 c-3.9674-9.67-11.7986-15.6264-20.0941-21.1628c-6.568-4.3835-18.2255-5.9476-25.8925-5.2382 c-8.0246,0.7426-15.6531,3.6521-22.3113,8.8943c-1.9478,1.5336-3.8917,1.8058-6.3025,1.035 c-17.5251-5.603-43.2014,2.2523-48.377,21.7622c-2.1871,8.2447-0.7743,17.381,3.5401,24.7094 c6.4822,11.0106,17.015,15.9987,28.8028,18.9302c2.166,0.5387,2.9964,1.2274,3.408,3.6013 c4.525,26.0997,31.7204,31.4627,54.1959,27.5798c1.3383-0.2312,3.2182-0.0743,4.1819,0.7144 c15.7908,12.9216,43.297,17.1943,62.4866,10.6357c19.1577-6.5477,32.3883-23.662,32.1823-42.0589 c-0.1543-13.7767-6.6515-25.5429-16.405-33.9219C166.0094,165.323,153.5845,160.3938,140.8982,159.8437z"/></g></svg>